<?xml version="1.0" encoding="UTF-8"?>
<svg id="_레이어_1" data-name="레이어_1" xmlns="http://www.w3.org/2000/svg" version="1.1" viewBox="0 0 150 150">
  <!-- Generator: Adobe Illustrator 30.4.0, SVG Export Plug-In . SVG Version: 2.1.4 Build 226)  -->
  <defs>
    <style>
      .st0 {
        fill: #fff;
      }

      .st1 {
        display: none;
      }
    </style>
  </defs>
  <g id="_레이어_4" class="st1">
    <g>
      <path class="st0" d="M102.26,84.37c.28-5.05-5.28-11.09-16.23-10.06l-.84.04c-.43-7.22-7.62-12.05-15.28-13.08-.56-.05-1.08.5-.85.97,1.9,4.82-1.89,7.74-5.33,10.78-3.36,2.78-7.56,7.07-6.74,12.86.16.72.37,1.59.81,2.45-4.89,3.12-7.24,9.45-3.33,14.71-4.17,3.66-6.3,9.46-4.48,15,1.55,4.7,5.58,8.44,11.4,9.82,6.36,1.6,14.12,1.05,28.34-3.51,12.32-3.95,21-7.36,25.81-13.32,3.56-4.32,4.83-9.45,2.87-15.41-2.05-6.24-8.8-10.89-16.15-11.24h0ZM113.62,108.39c-3.73,8.59-42.14,20.97-50.28,17.1-10.6-1.85-14.41-15.1-5.72-22.32.29-.24.35-.49.02-.83-3.76-4.2-2.06-9.99,2.72-13.15.31-.17.49-.53.29-.92-5.44-11.77,13.25-13,10.61-24.06,6.37.89,12.29,5.62,12.03,11.99.05.36.36.41.63.33,8.02-1.65,15.6,1.64,15.85,8.6-.1.52-.27,1.27.56,1.25,11.39-.51,19.62,11.67,13.29,22.01Z"/>
      <path class="st0" d="M55.36,63.29c6.45-2.14,9.13-8.99,6.32-17.84-2.24-7.05-10.16-15.77-18.28-13.08-5.99,1.99-9.41,9.5-6.63,18.23,2.24,7.05,9.81,15.6,18.6,12.69h-.01ZM43.85,34.66c5.2-1.86,12.21,2.75,15.08,10.49,2.06,5.8,1.82,12.71-3.39,15.5-5.92,2.48-13.76-3.14-16.44-10.93-2.21-6.42-.62-13.14,4.75-15.06Z"/>
      <path class="st0" d="M82.91,54.85c6.93-1.98,11.01-11.29,7.77-21.9-2.22-7.1-8.06-13.49-15.08-11.11-6.51,2.2-10.22,11.38-8.27,20.29,1.86,7.73,7.89,15.19,15.58,12.73h0ZM76.09,24.17c4.38-1.45,9.76,2,12.14,9.28,2.26,7.11.68,16.77-5.54,18.97-5.73,1.97-10.47-3.24-12.47-9.3-2.4-7.54-.57-16.81,5.87-18.95Z"/>
      <path class="st0" d="M42.31,91.6c5.62-1.85,7.53-6.88,5.73-12.71-3.01-9.4-13.6-16.95-22.4-14.06-5.35,1.76-7.1,6.81-5.22,12.9,2.31,6.96,12.21,17.05,21.89,13.86h0ZM26.15,67.2c6.23-2.13,16.05,2.84,19.34,11.82,1.72,4.89.45,9.04-3.7,10.28-7.2,2.09-16.08-4.09-18.89-12.09-1.41-4-.69-8.57,3.25-10.01Z"/>
      <path class="st0" d="M107.9,39.69c-8.71,2.4-13.72,14.05-10.73,23.25,1.73,4.84,5.92,9.1,12.44,6.99,7.62-2.47,12.89-12.64,9.77-22.44-1.65-5.3-6.24-8.93-11.49-7.79h0ZM109.33,67.57c-4.4,1.3-7.92-.96-9.61-5.69-2.82-7.3.59-17.63,7.84-19.7,4.01-1.05,7.63,1.31,9.45,6.4,2.18,6.69-.63,16.71-7.68,18.99Z"/>
    </g>
  </g>
  <g>
    <path class="st0" d="M117.35,86.95c.37-6.73-6.94-14.77-21.33-13.4l-1.1.05c-.57-9.62-10.01-16.05-20.08-17.42-.74-.07-1.42.67-1.12,1.29,2.5,6.42-2.48,10.31-7.01,14.36-4.42,3.7-9.94,9.42-8.86,17.13.21.96.49,2.12,1.06,3.26-6.43,4.16-9.52,12.59-4.38,19.59-5.48,4.87-8.28,12.6-5.89,19.98,2.04,6.26,7.33,11.24,14.98,13.08,8.36,2.13,18.56,1.4,37.25-4.67,16.19-5.26,27.6-9.8,33.92-17.74,4.68-5.75,6.35-12.59,3.77-20.52-2.69-8.31-11.57-14.5-21.23-14.97h0ZM132.28,118.94c-4.9,11.44-55.38,27.93-66.08,22.77-13.93-2.46-18.94-20.11-7.52-29.73.38-.32.46-.65.03-1.11-4.94-5.59-2.71-13.3,3.57-17.51.41-.23.64-.71.38-1.23-7.15-15.67,17.41-17.31,13.94-32.04,8.37,1.19,16.15,7.48,15.81,15.97.07.48.47.55.83.44,10.54-2.2,20.5,2.18,20.83,11.45-.13.69-.35,1.69.74,1.66,14.97-.68,25.79,15.54,17.47,29.31Z"/>
    <path class="st0" d="M55.72,58.88c8.48-2.85,12-11.97,8.31-23.76-2.94-9.39-13.35-21-24.02-17.42-7.87,2.65-12.37,12.65-8.71,24.28,2.94,9.39,12.89,20.78,24.45,16.9h-.01ZM40.58,20.73c6.83-2.48,16.05,3.66,19.82,13.97,2.71,7.72,2.39,16.93-4.46,20.64-7.78,3.3-18.08-4.18-21.61-14.56-2.9-8.55-.81-17.5,6.24-20.06Z"/>
    <path class="st0" d="M91.92,47.64c9.11-2.64,14.47-15.04,10.21-29.17-2.92-9.46-10.59-17.97-19.82-14.8-8.56,2.93-13.43,15.16-10.87,27.02,2.44,10.29,10.37,20.23,20.48,16.95h0ZM82.95,6.78c5.76-1.93,12.83,2.66,15.96,12.36,2.97,9.47.89,22.33-7.28,25.26-7.53,2.62-13.76-4.31-16.39-12.39-3.15-10.04-.75-22.39,7.71-25.24Z"/>
    <path class="st0" d="M38.56,96.58c7.39-2.46,9.9-9.16,7.53-16.93-3.96-12.52-17.87-22.57-29.44-18.72-7.03,2.34-9.33,9.07-6.86,17.18,3.04,9.27,16.05,22.71,28.77,18.46h0ZM17.32,64.08c8.19-2.84,21.09,3.78,25.42,15.74,2.26,6.51.59,12.04-4.86,13.69-9.46,2.78-21.13-5.45-24.83-16.1-1.85-5.33-.91-11.41,4.27-13.33Z"/>
    <path class="st0" d="M124.77,27.45c-11.45,3.2-18.03,18.71-14.1,30.96,2.27,6.45,7.78,12.12,16.35,9.31,10.01-3.29,16.94-16.83,12.84-29.88-2.17-7.06-8.2-11.89-15.1-10.37h.01ZM126.64,64.58c-5.78,1.73-10.41-1.28-12.63-7.58-3.71-9.72.78-23.48,10.3-26.24,5.27-1.4,10.03,1.74,12.42,8.52,2.87,8.91-.83,22.25-10.09,25.29Z"/>
    <g>
      <path class="st0" d="M118.2,86.6c.39-6.88-7.34-15.12-22.55-13.71l-1.17.05c-.6-9.84-10.59-16.43-21.23-17.83-.78-.07-1.5.68-1.18,1.32,2.64,6.57-2.63,10.55-7.41,14.7-4.66,3.78-10.48,9.61-9.37,17.48,0,.03.01.06.02.1.18.8.41,1.72.82,2.67.16.36.05.78-.28,1-6.22,4.25-9.17,12.26-4.47,19.1.23.33.19.78-.11,1.05-5.44,5.01-8.15,12.66-5.7,19.98,2.15,6.41,7.75,11.51,15.84,13.39,8.84,2.18,19.62,1.43,39.38-4.78,17.12-5.38,29.18-10.03,35.86-18.16,4.95-5.89,6.71-12.88,3.99-21.01-2.85-8.51-12.23-14.85-22.44-15.32h0ZM131.16,117.79c-4.82,10.7-54.5,26.12-65.03,21.3-13.71-2.3-18.64-18.81-7.4-27.8.38-.3.45-.61.03-1.03-4.86-5.23-2.66-12.44,3.52-16.38.4-.21.63-.66.38-1.15-6.85-14.26,15.85-16.1,13.94-28.88-.08-.53.39-1.01.91-.9,7.35,1.51,12.28,7.76,12.33,15,0,.52.47.91.96.78.73-.18,1.64-.52,1.92-.61.04-.01.06-.02.1-.02,10.35-2.02,19.74,3.09,20.3,11.73.04.57.02.47.87.55,14.68,1.41,25.37,14.54,17.19,27.42Z"/>
      <path class="st0" d="M55.02,59c8.48-2.85,12-11.97,8.31-23.76-2.94-9.39-13.35-21-24.02-17.42-7.87,2.65-12.37,12.65-8.71,24.28,2.94,9.39,12.89,20.78,24.45,16.9h-.01ZM40.83,22.14c5.9-2.29,13.86,3.39,17.12,12.94,2.34,7.15,2.07,15.68-3.85,19.12-6.72,3.06-15.62-3.87-18.66-13.48-2.51-7.92-.7-16.21,5.39-18.57Z"/>
      <path class="st0" d="M91.21,47.76c18.86-3.62,13.31-49.85-9.61-43.96-18.77,5.34-12.94,49.78,9.61,43.98h0ZM82.83,8.8c14.05-4.53,20.84,29.3,7.44,33.82-15.52,4.42-20.88-29.72-7.44-33.82Z"/>
      <path class="st0" d="M37.86,96.7c22.48-9.86-5.24-43.18-21.91-35.65-20.43,8.98,3.29,42.01,21.91,35.64h0ZM18.48,65.71c9.36-5.68,31.98,18.1,16.98,26.41-10.34,4.88-29.98-17.55-16.98-26.41Z"/>
      <path class="st0" d="M124.08,27.57c-17.72,3.32-22.12,45.31,2.18,40.27,16.36-3.13,20-42.74-2.2-40.26h.01ZM125.65,62.89c-14.99,3.51-13.74-27.55-1.86-30.18,13.93-2.67,13.59,26.76,1.86,30.18Z"/>
    </g>
  </g>
</svg>