<svg xmlns="http://www.w3.org/2000/svg" xmlns:xlink="http://www.w3.org/1999/xlink" width="1024" zoomAndPan="magnify" viewBox="0 0 768 374.999991" height="500" preserveAspectRatio="xMidYMid meet" version="1.0"><defs><g/><clipPath id="a85630cc1e"><rect x="0" width="757" y="0" height="235"/></clipPath></defs><g transform="matrix(1, 0, 0, 1, 0, 70)"><g clip-path="url(#a85630cc1e)"><g fill="#ffffff" fill-opacity="1"><g transform="translate(-0.578263, 180.93956)"><g><path d="M 131.703125 -117.015625 C 131.703125 -109.929688 130.351562 -103.476562 127.65625 -97.65625 C 124.957031 -91.84375 121.269531 -86.878906 116.59375 -82.765625 C 112.050781 -78.648438 106.519531 -75.421875 100 -73.078125 C 93.476562 -70.742188 86.53125 -69.578125 79.15625 -69.578125 C 63.257812 -69.578125 50.5625 -73.972656 41.0625 -82.765625 C 36.519531 -86.878906 32.9375 -91.84375 30.3125 -97.65625 C 27.695312 -103.476562 26.390625 -109.929688 26.390625 -117.015625 C 26.390625 -123.972656 27.664062 -130.359375 30.21875 -136.171875 C 32.769531 -141.984375 36.3125 -146.945312 40.84375 -151.0625 C 45.382812 -155.175781 50.914062 -158.398438 57.4375 -160.734375 C 63.96875 -163.078125 71.207031 -164.25 79.15625 -164.25 C 86.53125 -164.25 93.375 -163.078125 99.6875 -160.734375 C 106 -158.398438 111.566406 -155.175781 116.390625 -151.0625 C 121.066406 -146.945312 124.785156 -141.984375 127.546875 -136.171875 C 130.316406 -130.359375 131.703125 -123.972656 131.703125 -117.015625 Z M 114.890625 -116.59375 C 114.890625 -126.09375 111.695312 -133.785156 105.3125 -139.671875 C 98.9375 -145.566406 90.285156 -148.515625 79.359375 -148.515625 C 68.015625 -148.515625 59.1875 -145.601562 52.875 -139.78125 C 46.5625 -133.96875 43.40625 -126.238281 43.40625 -116.59375 C 43.40625 -106.664062 46.738281 -98.722656 53.40625 -92.765625 C 60.070312 -86.804688 68.722656 -83.828125 79.359375 -83.828125 C 89.992188 -83.828125 98.570312 -86.84375 105.09375 -92.875 C 111.625 -98.90625 114.890625 -106.8125 114.890625 -116.59375 Z M 133.1875 -61.28125 C 135.601562 -61.414062 137.234375 -60.738281 138.078125 -59.25 C 138.929688 -57.757812 139.359375 -56.023438 139.359375 -54.046875 C 139.222656 -51.910156 138.617188 -49.992188 137.546875 -48.296875 C 136.484375 -46.597656 135.316406 -45.675781 134.046875 -45.53125 C 131.910156 -44.96875 129.035156 -44.398438 125.421875 -43.828125 C 121.804688 -43.265625 117.585938 -42.695312 112.765625 -42.125 C 107.941406 -41.5625 102.726562 -41.03125 97.125 -40.53125 C 91.519531 -40.03125 85.8125 -39.570312 80 -39.15625 C 74.1875 -38.726562 68.367188 -38.335938 62.546875 -37.984375 C 56.734375 -37.628906 51.203125 -37.378906 45.953125 -37.234375 C 35.035156 -36.523438 26.664062 -36.523438 20.84375 -37.234375 C 19.144531 -37.234375 17.765625 -37.941406 16.703125 -39.359375 C 15.640625 -40.773438 15.035156 -42.40625 14.890625 -44.25 C 14.753906 -45.957031 15.109375 -47.554688 15.953125 -49.046875 C 16.804688 -50.535156 18.4375 -51.28125 20.84375 -51.28125 C 22.976562 -51.132812 25.816406 -51.097656 29.359375 -51.171875 C 32.910156 -51.242188 37.164062 -51.421875 42.125 -51.703125 C 46.945312 -51.984375 52.015625 -52.300781 57.328125 -52.65625 C 62.648438 -53.007812 68.222656 -53.472656 74.046875 -54.046875 C 79.578125 -54.609375 85.144531 -55.171875 90.75 -55.734375 C 96.351562 -56.304688 101.847656 -56.878906 107.234375 -57.453125 C 118.441406 -58.722656 127.09375 -60 133.1875 -61.28125 Z M 72.34375 -1.0625 C 71.914062 3.90625 73.191406 7.734375 76.171875 10.421875 C 79.285156 13.265625 82.332031 14.6875 85.3125 14.6875 C 90.707031 14.6875 94.925781 13.019531 97.96875 9.6875 C 101.019531 6.351562 101.835938 1.632812 100.421875 -4.46875 C 99.710938 -7.875 97.691406 -10.710938 94.359375 -12.984375 C 91.023438 -15.253906 87.515625 -15.960938 83.828125 -15.109375 C 80.140625 -14.253906 77.410156 -12.726562 75.640625 -10.53125 C 73.867188 -8.332031 72.769531 -5.175781 72.34375 -1.0625 Z M 85.75 -29.78125 C 91.988281 -29.78125 97.164062 -28.539062 101.28125 -26.0625 C 105.394531 -23.582031 108.65625 -20.566406 111.0625 -17.015625 C 113.613281 -13.617188 115.171875 -9.828125 115.734375 -5.640625 C 116.304688 -1.453125 116.238281 2.269531 115.53125 5.53125 C 114.675781 10.070312 113.113281 13.972656 110.84375 17.234375 C 108.582031 20.492188 105.960938 23.046875 102.984375 24.890625 C 99.859375 26.878906 96.453125 28.226562 92.765625 28.9375 C 89.078125 29.644531 85.390625 29.785156 81.703125 29.359375 C 74.179688 28.503906 68.257812 25.664062 63.9375 20.84375 C 59.613281 16.019531 57.164062 10.132812 56.59375 3.1875 C 56.03125 -2.34375 56.632812 -7.195312 58.40625 -11.375 C 60.175781 -15.5625 62.550781 -19.003906 65.53125 -21.703125 C 68.363281 -24.535156 71.660156 -26.585938 75.421875 -27.859375 C 79.179688 -29.140625 82.625 -29.78125 85.75 -29.78125 Z M 85.75 -29.78125 "/></g></g></g><g fill="#ffffff" fill-opacity="1"><g transform="translate(150.693065, 180.93956)"><g><path d="M 78.71875 -92.546875 L 78.71875 -46.171875 L 78.078125 -15.75 C 78.078125 -11.351562 78.003906 -7.59375 77.859375 -4.46875 C 77.722656 -1.34375 77.585938 0.785156 77.453125 1.921875 C 77.160156 3.617188 76.195312 4.960938 74.5625 5.953125 C 72.9375 6.953125 71.132812 7.519531 69.15625 7.65625 C 67.3125 7.9375 65.644531 7.722656 64.15625 7.015625 C 62.664062 6.304688 61.921875 5.171875 61.921875 3.609375 C 61.921875 1.054688 61.953125 -2.128906 62.015625 -5.953125 C 62.085938 -9.785156 62.125 -13.972656 62.125 -18.515625 C 62.269531 -23.046875 62.375 -27.796875 62.4375 -32.765625 C 62.507812 -37.734375 62.546875 -42.769531 62.546875 -47.875 C 62.691406 -57.800781 62.691406 -66.378906 62.546875 -73.609375 C 62.546875 -77.015625 62.472656 -79.742188 62.328125 -81.796875 C 62.191406 -83.859375 62.054688 -85.03125 61.921875 -85.3125 C 61.492188 -85.457031 59.1875 -85.351562 55 -85 C 50.8125 -84.644531 46.09375 -84.179688 40.84375 -83.609375 C 35.601562 -83.046875 30.5 -82.441406 25.53125 -81.796875 C 20.5625 -81.160156 17.085938 -80.703125 15.109375 -80.421875 C 13.398438 -79.992188 12.082031 -80.597656 11.15625 -82.234375 C 10.238281 -83.867188 9.640625 -85.75 9.359375 -87.875 C 9.222656 -90 9.363281 -91.945312 9.78125 -93.71875 C 10.207031 -95.5 10.988281 -96.457031 12.125 -96.59375 C 14.96875 -97.019531 19.257812 -97.585938 25 -98.296875 C 30.738281 -99.003906 36.734375 -99.644531 42.984375 -100.21875 C 49.222656 -100.925781 54.960938 -101.421875 60.203125 -101.703125 C 65.453125 -101.984375 69.070312 -102.054688 71.0625 -101.921875 C 75.457031 -101.203125 78.007812 -98.078125 78.71875 -92.546875 Z M 155.75 -72.546875 C 156.59375 -72.546875 157.40625 -71.835938 158.1875 -70.421875 C 158.96875 -69.003906 159.570312 -67.515625 160 -65.953125 C 160 -63.972656 159.890625 -62.09375 159.671875 -60.3125 C 159.460938 -58.539062 158.722656 -57.515625 157.453125 -57.234375 C 154.179688 -55.816406 149.359375 -55.035156 142.984375 -54.890625 C 139.578125 -54.753906 136.238281 -54.71875 132.96875 -54.78125 C 129.707031 -54.851562 126.519531 -54.960938 123.40625 -55.109375 L 123.40625 -39.578125 C 123.40625 -37.160156 123.40625 -34.992188 123.40625 -33.078125 C 123.40625 -31.171875 123.472656 -29.503906 123.609375 -28.078125 C 123.753906 -25.671875 123.117188 -23.863281 121.703125 -22.65625 C 120.285156 -21.445312 118.582031 -20.632812 116.59375 -20.21875 C 114.601562 -19.789062 112.757812 -19.785156 111.0625 -20.203125 C 109.363281 -20.628906 108.515625 -21.269531 108.515625 -22.125 C 107.804688 -24.675781 107.378906 -29.640625 107.234375 -37.015625 C 107.085938 -40.703125 107.015625 -44.566406 107.015625 -48.609375 C 107.015625 -52.660156 107.015625 -56.738281 107.015625 -60.84375 C 107.015625 -64.957031 107.050781 -69 107.125 -72.96875 C 107.195312 -76.945312 107.304688 -80.78125 107.453125 -84.46875 C 107.585938 -88.15625 107.722656 -91.238281 107.859375 -93.71875 C 108.003906 -96.207031 108.222656 -98.160156 108.515625 -99.578125 C 108.515625 -100.847656 109.4375 -101.835938 111.28125 -102.546875 C 113.125 -103.253906 115.035156 -103.679688 117.015625 -103.828125 C 119.003906 -103.828125 120.742188 -103.507812 122.234375 -102.875 C 123.722656 -102.238281 124.46875 -101.140625 124.46875 -99.578125 C 124.039062 -97.160156 123.753906 -93.398438 123.609375 -88.296875 C 123.472656 -83.191406 123.40625 -77.519531 123.40625 -71.28125 C 128.65625 -70.988281 134.46875 -70.988281 140.84375 -71.28125 C 143.820312 -71.414062 146.660156 -71.585938 149.359375 -71.796875 C 152.054688 -72.015625 154.1875 -72.265625 155.75 -72.546875 Z M 155.75 -72.546875 "/></g></g></g><g fill="#ffffff" fill-opacity="1"><g transform="translate(301.964394, 180.93956)"><g><path d="M 122.546875 -16.8125 C 122.546875 -15.25 121.726562 -14.179688 120.09375 -13.609375 C 118.46875 -13.046875 116.734375 -12.765625 114.890625 -12.765625 C 112.765625 -12.765625 110.847656 -13.117188 109.140625 -13.828125 C 107.441406 -14.535156 106.523438 -15.53125 106.390625 -16.8125 L 106.390625 -53.828125 C 102.984375 -52.972656 99.222656 -52.335938 95.109375 -51.921875 C 91.703125 -51.492188 88.507812 -51.28125 85.53125 -51.28125 L 85.109375 -34.890625 L 84.46875 -18.078125 C 83.894531 -14.253906 82.332031 -11.914062 79.78125 -11.0625 C 77.375 -10.5 73.796875 -9.894531 69.046875 -9.25 C 64.296875 -8.613281 59.222656 -8.015625 53.828125 -7.453125 C 48.578125 -6.878906 43.539062 -6.414062 38.71875 -6.0625 C 33.894531 -5.707031 30.347656 -5.53125 28.078125 -5.53125 C 25.097656 -5.53125 22.6875 -6.378906 20.84375 -8.078125 C 19 -9.785156 18.007812 -12.695312 17.875 -16.8125 C 17.59375 -19.21875 17.414062 -23.222656 17.34375 -28.828125 C 17.269531 -34.429688 17.304688 -40.210938 17.453125 -46.171875 C 17.453125 -52.265625 17.734375 -57.863281 18.296875 -62.96875 C 18.867188 -68.082031 19.578125 -71.421875 20.421875 -72.984375 C 21.273438 -74.253906 23.332031 -75.175781 26.59375 -75.75 C 28.15625 -75.882812 29.710938 -75.878906 31.265625 -75.734375 C 32.828125 -75.597656 34.25 -74.960938 35.53125 -73.828125 C 34.820312 -69.859375 34.289062 -65.566406 33.9375 -60.953125 C 33.582031 -56.347656 33.40625 -51.703125 33.40625 -47.015625 C 33.40625 -42.484375 33.507812 -37.984375 33.71875 -33.515625 C 33.9375 -29.046875 34.257812 -25.035156 34.6875 -21.484375 C 34.6875 -21.203125 36.382812 -21.203125 39.78125 -21.484375 C 43.1875 -21.773438 46.945312 -22.0625 51.0625 -22.34375 C 55.175781 -22.769531 58.96875 -23.300781 62.4375 -23.9375 C 65.914062 -24.570312 67.867188 -25.101562 68.296875 -25.53125 C 68.578125 -26.519531 68.789062 -30.066406 68.9375 -36.171875 L 69.578125 -57.453125 L 69.578125 -78.078125 C 69.578125 -81.054688 69.503906 -83.429688 69.359375 -85.203125 C 69.222656 -86.984375 69.082031 -88.015625 68.9375 -88.296875 C 68.363281 -88.722656 64.957031 -88.796875 58.71875 -88.515625 C 52.90625 -88.367188 46.382812 -87.941406 39.15625 -87.234375 L 18.515625 -85.109375 L 5.953125 -83.828125 C 3.972656 -83.398438 2.804688 -84.070312 2.453125 -85.84375 C 2.097656 -87.625 2.128906 -89.578125 2.546875 -91.703125 C 2.835938 -93.828125 3.335938 -95.738281 4.046875 -97.4375 C 4.753906 -99.144531 5.675781 -100 6.8125 -100 C 9.644531 -100.425781 14.679688 -100.851562 21.921875 -101.28125 C 25.460938 -101.5625 29.144531 -101.84375 32.96875 -102.125 C 36.800781 -102.40625 40.707031 -102.617188 44.6875 -102.765625 C 52.769531 -103.191406 60.175781 -103.546875 66.90625 -103.828125 C 73.644531 -104.109375 77.9375 -104.179688 79.78125 -104.046875 C 81.914062 -103.753906 83.441406 -102.789062 84.359375 -101.15625 C 85.285156 -99.53125 85.890625 -97.441406 86.171875 -94.890625 L 86.171875 -82.125 C 86.171875 -79.71875 86.171875 -77.203125 86.171875 -74.578125 C 86.171875 -71.953125 86.097656 -69.222656 85.953125 -66.390625 L 86.171875 -66.390625 C 87.304688 -66.390625 88.648438 -66.421875 90.203125 -66.484375 C 91.765625 -66.554688 93.46875 -66.734375 95.3125 -67.015625 C 97.300781 -67.304688 99.285156 -67.628906 101.265625 -67.984375 C 103.253906 -68.335938 105.101562 -68.726562 106.8125 -69.15625 C 106.945312 -77.945312 107.191406 -85.851562 107.546875 -92.875 C 107.898438 -99.894531 108.222656 -104.46875 108.515625 -106.59375 C 108.648438 -107.875 109.5 -108.898438 111.0625 -109.671875 C 112.625 -110.453125 114.394531 -110.945312 116.375 -111.15625 C 118.363281 -111.375 120.140625 -111.234375 121.703125 -110.734375 C 123.265625 -110.242188 124.046875 -109.429688 124.046875 -108.296875 C 123.753906 -103.472656 123.535156 -96.804688 123.390625 -88.296875 C 123.253906 -79.785156 123.117188 -70.992188 122.984375 -61.921875 C 122.835938 -52.835938 122.726562 -44.144531 122.65625 -35.84375 C 122.582031 -27.550781 122.546875 -21.207031 122.546875 -16.8125 Z M 150.421875 -24.25 C 149.992188 -23.113281 149.070312 -22.367188 147.65625 -22.015625 C 146.238281 -21.660156 144.535156 -21.484375 142.546875 -21.484375 C 140.847656 -21.484375 139.253906 -21.625 137.765625 -21.90625 C 136.273438 -22.195312 135.53125 -22.695312 135.53125 -23.40625 C 135.25 -25.957031 135.140625 -30.957031 135.203125 -38.40625 C 135.273438 -45.851562 135.3125 -53.972656 135.3125 -62.765625 L 135.953125 -87.65625 C 136.378906 -95.320312 136.804688 -100.785156 137.234375 -104.046875 C 137.234375 -105.035156 137.941406 -105.847656 139.359375 -106.484375 C 140.773438 -107.128906 142.476562 -107.519531 144.46875 -107.65625 C 146.3125 -107.65625 148.015625 -107.335938 149.578125 -106.703125 C 151.140625 -106.066406 152.0625 -105.035156 152.34375 -103.609375 C 152.34375 -101.765625 152.34375 -99.28125 152.34375 -96.15625 C 152.34375 -93.039062 152.269531 -89.425781 152.125 -85.3125 L 151.484375 -59.578125 L 150.84375 -35.953125 C 150.707031 -29.285156 150.566406 -25.382812 150.421875 -24.25 Z M 150.421875 -24.25 "/></g></g></g><g fill="#ffffff" fill-opacity="1"><g transform="translate(453.235722, 180.93956)"><g><path d="M 107.65625 -52.546875 C 107.65625 -44.460938 106.34375 -37.050781 103.71875 -30.3125 C 101.09375 -23.582031 97.367188 -17.734375 92.546875 -12.765625 C 87.867188 -7.796875 82.265625 -3.894531 75.734375 -1.0625 C 69.210938 1.769531 62.195312 3.1875 54.6875 3.1875 C 47.019531 3.1875 39.921875 1.875 33.390625 -0.75 C 26.867188 -3.375 21.34375 -7.164062 16.8125 -12.125 C 11.988281 -16.945312 8.265625 -22.796875 5.640625 -29.671875 C 3.015625 -36.554688 1.703125 -44.179688 1.703125 -52.546875 C 1.703125 -60.640625 2.941406 -68.125 5.421875 -75 C 7.910156 -81.875 11.492188 -87.867188 16.171875 -92.984375 C 20.710938 -97.941406 26.242188 -101.875 32.765625 -104.78125 C 39.285156 -107.695312 46.59375 -109.15625 54.6875 -109.15625 C 62.34375 -109.15625 69.394531 -107.695312 75.84375 -104.78125 C 82.300781 -101.875 87.867188 -97.867188 92.546875 -92.765625 C 97.367188 -87.796875 101.09375 -81.835938 103.71875 -74.890625 C 106.34375 -67.941406 107.65625 -60.492188 107.65625 -52.546875 Z M 91.703125 -51.703125 C 91.703125 -63.472656 88.367188 -73.117188 81.703125 -80.640625 C 74.890625 -88.296875 65.738281 -92.125 54.25 -92.125 C 42.90625 -92.125 33.972656 -88.296875 27.453125 -80.640625 C 20.921875 -73.117188 17.65625 -63.472656 17.65625 -51.703125 C 17.65625 -40.210938 20.988281 -30.921875 27.65625 -23.828125 C 34.320312 -16.734375 43.332031 -13.1875 54.6875 -13.1875 C 65.882812 -13.1875 74.851562 -16.585938 81.59375 -23.390625 C 88.332031 -30.203125 91.703125 -39.640625 91.703125 -51.703125 Z M 130.421875 -99.578125 C 130.566406 -100.847656 131.523438 -101.835938 133.296875 -102.546875 C 135.066406 -103.253906 137.019531 -103.679688 139.15625 -103.828125 C 141.132812 -103.828125 142.867188 -103.507812 144.359375 -102.875 C 145.847656 -102.238281 146.519531 -101.140625 146.375 -99.578125 C 145.957031 -96.734375 145.675781 -92.117188 145.53125 -85.734375 C 145.382812 -79.359375 145.3125 -72.550781 145.3125 -65.3125 C 145.175781 -57.9375 145.109375 -50.804688 145.109375 -43.921875 C 145.109375 -37.046875 145.25 -31.765625 145.53125 -28.078125 C 145.675781 -25.671875 145.003906 -23.863281 143.515625 -22.65625 C 142.023438 -21.445312 140.425781 -20.632812 138.71875 -20.21875 C 136.59375 -19.789062 134.710938 -19.785156 133.078125 -20.203125 C 131.453125 -20.628906 130.566406 -21.269531 130.421875 -22.125 C 129.859375 -24.675781 129.503906 -29.640625 129.359375 -37.015625 C 129.222656 -40.703125 129.15625 -44.566406 129.15625 -48.609375 C 129.15625 -52.660156 129.15625 -56.738281 129.15625 -60.84375 C 129.15625 -64.957031 129.1875 -69 129.25 -72.96875 C 129.320312 -76.945312 129.429688 -80.78125 129.578125 -84.46875 C 129.578125 -88.15625 129.679688 -91.238281 129.890625 -93.71875 C 130.109375 -96.207031 130.285156 -98.160156 130.421875 -99.578125 Z M 130.421875 -99.578125 "/></g></g></g><g fill="#ffffff" fill-opacity="1"><g transform="translate(604.507051, 180.93956)"><g><path d="M 111.703125 -138.515625 C 113.398438 -138.515625 114.78125 -137.800781 115.84375 -136.375 C 116.914062 -134.957031 117.660156 -133.328125 118.078125 -131.484375 C 118.503906 -129.640625 118.578125 -127.9375 118.296875 -126.375 C 118.015625 -124.820312 117.234375 -123.898438 115.953125 -123.609375 C 114.679688 -122.898438 111.421875 -122.117188 106.171875 -121.265625 C 100.921875 -120.421875 95.25 -119.644531 89.15625 -118.9375 C 82.90625 -117.945312 76.835938 -116.953125 70.953125 -115.953125 C 65.066406 -114.960938 60.847656 -114.039062 58.296875 -113.1875 L 55.75 -95.3125 C 60.707031 -95.738281 65.953125 -96.304688 71.484375 -97.015625 C 77.015625 -97.722656 82.40625 -98.503906 87.65625 -99.359375 C 92.90625 -100.210938 97.832031 -101.0625 102.4375 -101.90625 C 107.050781 -102.757812 110.988281 -103.613281 114.25 -104.46875 C 115.101562 -104.46875 115.742188 -103.757812 116.171875 -102.34375 C 116.597656 -100.925781 116.8125 -99.296875 116.8125 -97.453125 C 116.8125 -95.609375 116.523438 -93.90625 115.953125 -92.34375 C 115.390625 -90.78125 114.679688 -89.859375 113.828125 -89.578125 C 110.992188 -88.441406 107.34375 -87.375 102.875 -86.375 C 98.40625 -85.382812 93.472656 -84.535156 88.078125 -83.828125 C 82.691406 -82.972656 77.160156 -82.226562 71.484375 -81.59375 C 65.816406 -80.957031 60.359375 -80.566406 55.109375 -80.421875 C 54.828125 -79.148438 54.578125 -77.445312 54.359375 -75.3125 C 54.148438 -73.1875 53.898438 -71.132812 53.609375 -69.15625 L 52.984375 -63.828125 L 52.765625 -61.703125 C 53.191406 -61.421875 54.394531 -61.28125 56.375 -61.28125 C 58.363281 -61.28125 60.847656 -61.347656 63.828125 -61.484375 C 66.660156 -61.628906 70.0625 -61.878906 74.03125 -62.234375 C 78.007812 -62.585938 82.054688 -62.90625 86.171875 -63.1875 L 109.578125 -65.53125 C 112.835938 -65.957031 115.847656 -66.273438 118.609375 -66.484375 C 121.378906 -66.703125 123.332031 -66.878906 124.46875 -67.015625 C 126.164062 -67.160156 127.546875 -66.523438 128.609375 -65.109375 C 129.679688 -63.691406 130.425781 -61.988281 130.84375 -60 C 131.269531 -58.007812 131.269531 -56.164062 130.84375 -54.46875 C 130.425781 -52.769531 129.648438 -51.707031 128.515625 -51.28125 C 126.953125 -50.988281 124.75 -50.628906 121.90625 -50.203125 C 119.070312 -49.785156 115.597656 -49.4375 111.484375 -49.15625 L 85.953125 -47.015625 C 81.554688 -46.734375 77.265625 -46.453125 73.078125 -46.171875 C 68.898438 -45.890625 64.820312 -45.601562 60.84375 -45.3125 C 53.050781 -44.894531 47.945312 -44.6875 45.53125 -44.6875 C 41.695312 -44.6875 39.140625 -45.179688 37.859375 -46.171875 C 36.585938 -47.160156 35.953125 -49.429688 35.953125 -52.984375 C 35.953125 -55.253906 36.164062 -59.863281 36.59375 -66.8125 C 37.019531 -74.039062 37.585938 -81.628906 38.296875 -89.578125 L 40.84375 -112.34375 C 41.84375 -119.4375 42.835938 -123.90625 43.828125 -125.75 C 44.679688 -126.882812 48.507812 -128.226562 55.3125 -129.78125 C 58.289062 -130.488281 61.695312 -131.160156 65.53125 -131.796875 C 69.363281 -132.441406 73.265625 -133.117188 77.234375 -133.828125 L 99.578125 -137.015625 C 102.410156 -137.441406 104.960938 -137.757812 107.234375 -137.96875 C 109.503906 -138.1875 110.992188 -138.367188 111.703125 -138.515625 Z M 141.0625 -24.6875 C 142.34375 -25.25 143.335938 -24.851562 144.046875 -23.5 C 144.753906 -22.15625 145.25 -20.492188 145.53125 -18.515625 C 145.675781 -16.378906 145.570312 -14.425781 145.21875 -12.65625 C 144.863281 -10.882812 144.046875 -9.925781 142.765625 -9.78125 C 138.503906 -8.9375 131.195312 -7.945312 120.84375 -6.8125 C 115.882812 -6.238281 110.425781 -5.703125 104.46875 -5.203125 C 98.507812 -4.710938 92.410156 -4.328125 86.171875 -4.046875 C 79.929688 -3.617188 73.757812 -3.226562 67.65625 -2.875 C 61.5625 -2.519531 55.816406 -2.203125 50.421875 -1.921875 C 45.035156 -1.628906 40.175781 -1.445312 35.84375 -1.375 C 31.519531 -1.3125 28.082031 -1.347656 25.53125 -1.484375 C 23.832031 -1.484375 22.445312 -2.226562 21.375 -3.71875 C 20.3125 -5.207031 19.570312 -6.945312 19.15625 -8.9375 C 18.726562 -10.78125 18.832031 -12.484375 19.46875 -14.046875 C 20.101562 -15.609375 21.273438 -16.390625 22.984375 -16.390625 C 25.535156 -16.390625 28.9375 -16.457031 33.1875 -16.59375 C 37.445312 -16.738281 42.203125 -16.953125 47.453125 -17.234375 C 52.691406 -17.378906 58.328125 -17.660156 64.359375 -18.078125 C 70.390625 -18.503906 76.523438 -18.929688 82.765625 -19.359375 C 88.867188 -19.785156 94.863281 -20.210938 100.75 -20.640625 C 106.632812 -21.066406 112.203125 -21.5625 117.453125 -22.125 C 122.691406 -22.550781 127.332031 -22.976562 131.375 -23.40625 C 135.425781 -23.832031 138.65625 -24.257812 141.0625 -24.6875 Z M 141.0625 -24.6875 "/></g></g></g></g></g></svg>