<?xml version="1.0" encoding="UTF-8"?>
<svg id="_레이어_1" data-name="레이어 1" xmlns="http://www.w3.org/2000/svg" viewBox="0 0 133.83 144">
  <defs>
    <style>
      .cls-1 {
        fill: #fff;
      }
    </style>
  </defs>
  <path class="cls-1" d="M109.26,83.95c.37-6.73-6.94-14.77-21.33-13.4l-1.1.05c-.57-9.62-10.01-16.05-20.08-17.42-.74-.07-1.42.67-1.12,1.29,2.5,6.42-2.48,10.31-7.01,14.36-4.42,3.7-9.94,9.42-8.86,17.13.21.96.49,2.12,1.06,3.26-6.43,4.16-9.52,12.59-4.38,19.59-5.48,4.87-8.28,12.6-5.89,19.98,2.04,6.26,7.33,11.24,14.98,13.08,8.36,2.13,18.56,1.4,37.25-4.67,16.19-5.26,27.6-9.8,33.92-17.74,4.68-5.75,6.35-12.59,3.77-20.52-2.69-8.31-11.57-14.5-21.23-14.97h0ZM124.19,115.94c-4.9,11.44-55.38,27.93-66.08,22.77-13.93-2.46-18.94-20.11-7.52-29.73.38-.32.46-.65.03-1.11-4.94-5.59-2.71-13.3,3.57-17.51.41-.23.64-.71.38-1.23-7.15-15.67,17.41-17.31,13.94-32.04,8.37,1.19,16.15,7.48,15.81,15.97.07.48.47.55.83.44,10.54-2.2,20.5,2.18,20.83,11.45-.13.69-.35,1.69.74,1.66,14.97-.68,25.79,15.54,17.47,29.31Z"/>
  <path class="cls-1" d="M47.64,55.88c8.48-2.85,12-11.97,8.31-23.76-2.94-9.39-13.35-21-24.02-17.42-7.87,2.65-12.37,12.65-8.71,24.28,2.94,9.39,12.89,20.78,24.45,16.9h-.01ZM32.5,17.73c6.83-2.48,16.05,3.66,19.82,13.97,2.71,7.72,2.39,16.93-4.46,20.64-7.78,3.3-18.08-4.18-21.61-14.56-2.9-8.55-.81-17.5,6.24-20.06Z"/>
  <path class="cls-1" d="M83.83,44.64c9.11-2.64,14.47-15.04,10.21-29.17-2.92-9.46-10.59-17.97-19.82-14.8-8.56,2.93-13.43,15.16-10.87,27.02,2.44,10.29,10.37,20.23,20.48,16.95h0ZM74.87,3.78c5.76-1.93,12.83,2.66,15.96,12.36,2.97,9.47.89,22.33-7.28,25.26-7.53,2.62-13.76-4.31-16.39-12.39-3.15-10.04-.75-22.39,7.71-25.24Z"/>
  <path class="cls-1" d="M30.47,93.58c7.39-2.46,9.9-9.16,7.53-16.93-3.96-12.52-17.87-22.57-29.44-18.72-7.03,2.34-9.33,9.07-6.86,17.18,3.04,9.27,16.05,22.71,28.77,18.46h0ZM9.23,61.08c8.19-2.84,21.09,3.78,25.42,15.74,2.26,6.51.59,12.04-4.86,13.69-9.46,2.78-21.13-5.45-24.83-16.1-1.85-5.33-.91-11.41,4.27-13.33Z"/>
  <path class="cls-1" d="M116.69,24.45c-11.45,3.2-18.03,18.71-14.1,30.96,2.27,6.45,7.78,12.12,16.35,9.31,10.01-3.29,16.94-16.83,12.84-29.88-2.17-7.06-8.2-11.89-15.1-10.37h.01ZM118.55,61.58c-5.78,1.73-10.41-1.28-12.63-7.58-3.71-9.72.78-23.48,10.3-26.24,5.27-1.4,10.03,1.74,12.42,8.52,2.87,8.91-.83,22.25-10.09,25.29Z"/>
  <g>
    <path class="cls-1" d="M110.11,83.6c.39-6.88-7.34-15.12-22.55-13.71l-1.17.05c-.6-9.84-10.59-16.43-21.23-17.83-.78-.07-1.5.68-1.18,1.32,2.64,6.57-2.63,10.55-7.41,14.7-4.66,3.78-10.48,9.61-9.37,17.48,0,.03.01.06.02.1.18.8.41,1.72.82,2.67.16.36.05.78-.28,1-6.22,4.25-9.17,12.26-4.47,19.1.23.33.19.78-.11,1.05-5.44,5.01-8.15,12.66-5.7,19.98,2.15,6.41,7.75,11.51,15.84,13.39,8.84,2.18,19.62,1.43,39.38-4.78,17.12-5.38,29.18-10.03,35.86-18.16,4.95-5.89,6.71-12.88,3.99-21.01-2.85-8.51-12.23-14.85-22.44-15.32h0ZM123.08,114.79c-4.82,10.7-54.5,26.12-65.03,21.3-13.71-2.3-18.64-18.81-7.4-27.8.38-.3.45-.61.03-1.03-4.86-5.23-2.66-12.44,3.52-16.38.4-.21.63-.66.38-1.15-6.85-14.26,15.85-16.1,13.94-28.88-.08-.53.39-1.01.91-.9,7.35,1.51,12.28,7.76,12.33,15,0,.52.47.91.96.78.73-.18,1.64-.52,1.92-.61.04-.01.06-.02.1-.02,10.35-2.02,19.74,3.09,20.3,11.73.04.57.02.47.87.55,14.68,1.41,25.37,14.54,17.19,27.42Z"/>
    <path class="cls-1" d="M46.93,56c8.48-2.85,12-11.97,8.31-23.76-2.94-9.39-13.35-21-24.02-17.42-7.87,2.65-12.37,12.65-8.71,24.28,2.94,9.39,12.89,20.78,24.45,16.9h-.01ZM32.74,19.14c5.9-2.29,13.86,3.39,17.12,12.94,2.34,7.15,2.07,15.68-3.85,19.12-6.72,3.06-15.62-3.87-18.66-13.48-2.51-7.92-.7-16.21,5.39-18.57Z"/>
    <path class="cls-1" d="M83.13,44.76c18.86-3.62,13.31-49.85-9.61-43.96-18.77,5.34-12.94,49.78,9.61,43.98h0ZM74.75,5.8c14.05-4.53,20.84,29.3,7.44,33.82-15.52,4.42-20.88-29.72-7.44-33.82Z"/>
    <path class="cls-1" d="M29.77,93.7c22.48-9.86-5.24-43.18-21.91-35.65-20.43,8.98,3.29,42.01,21.91,35.64h0ZM10.39,62.71c9.36-5.68,31.98,18.1,16.98,26.41-10.34,4.88-29.98-17.55-16.98-26.41Z"/>
    <path class="cls-1" d="M116,24.57c-17.72,3.32-22.12,45.31,2.18,40.27,16.36-3.13,20-42.74-2.2-40.26h.01ZM117.56,59.89c-14.99,3.51-13.74-27.55-1.86-30.18,13.93-2.67,13.59,26.76,1.86,30.18Z"/>
  </g>
</svg>