<svg id="Line" enable-background="new 0 0 32 32" height="512" viewBox="0 0 32 32" width="512" xmlns="http://www.w3.org/2000/svg"><path d="m2.071 3.371c-.205-.513.044-1.095.557-1.3.514-.205 1.095.044 1.3.558 1.885 4.714 4.921 7.459 9.281 8.394.54.115.884.647.769 1.188-.113.543-.661.885-1.188.768-4.99-1.071-8.597-4.302-10.719-9.608z"/><path d="m23 7c0 .552-.448 1-1 1s-1-.448-1-1 .448-1 1-1 1 .448 1 1z"/><path d="m29.316 6.052-2.513-.838c-.504-1.38-1.535-2.398-2.948-2.898s-3.008-.396-4.387.244c-.482-.807-1.283-1.56-2.468-1.56-2 0-2 2.026-2 3v8.828c-.841 2.23-3.379 2.711-7.124 3.18-1.351.169-2.815.695-3.944 1.66-.544-.526-.851-1.129-.914-1.802-.092-.985.371-1.845.685-2.155.393-.388.397-1.021.009-1.414-.388-.392-1.021-.397-1.414-.008-.74.73-1.419 2.178-1.271 3.764.082.88.458 2.08 1.648 3.167-.419.772-.675 1.69-.675 2.78 0 2.257.758 4.916 1.206 6.288.319 1.024 1.257 1.712 2.334 1.712 1.356 0 2.46-1.104 2.46-2.46v-2.54h3c.552 0 1-.447 1-1s-.448-1-1-1h-3c0-.553-.448-1-1-1s-1 .447-1 1v4.54c0 .258-.202.46-.46.46-.2 0-.367-.121-.429-.32-.334-1.024-1.111-3.626-1.111-5.68 0-3.239 3.157-3.887 4.125-4.008 3.258-.408 6.908-.874 8.451-3.818l6.424 1.606v1.22c0 .094.013.188.04.278.619 2.137.957 6.831.96 10.162 0 .149-.058.289-.163.395-.107.106-.248.165-.437.165-.309 0-.564-.22-.608-.521l-.803-5.62c-.049-.346-.276-.642-.598-.778-.32-.137-.692-.097-.976.108-.65.469-1.182.469-1.832 0-.285-.205-.656-.245-.976-.108-.322.137-.549.433-.598.778l-.803 5.62c-.041.296-.3.521-.6.521-.334 0-.606-.272-.606-.606v-5.394c0-.553-.448-1-1-1s-1 .447-1 1v5.394c0 1.437 1.169 2.606 2.606 2.606 1.289 0 2.398-.962 2.581-2.238l.615-4.304c.464.105.933.105 1.396 0l.615 4.304c.182 1.276 1.295 2.238 2.625 2.238.686 0 1.33-.267 1.814-.752.483-.483.749-1.126.748-1.81-.004-3.486-.348-8.189-1-10.576v-3.043l2.588-.518c1.397-.278 2.412-1.515 2.412-2.941v-3.36c0-.431-.275-.812-.684-.948zm-1.316 4.308c0 .476-.338.888-.804.98l-3.392.679c-.468.094-.804.504-.804.981v.72l-6-1.5v-8.22c0-.298 0-.767.054-.997.636.063.974 1.234.976 1.241.082.325.321.587.637.699.316.111.667.058.935-.145 1.023-.771 2.431-1.005 3.588-.598.665.235 1.524.78 1.841 2.042.083.331.33.598.653.705l2.316.774z"/></svg>