<?xml version="1.0" encoding="UTF-8"?>
<svg id="_레이어_2" data-name="레이어 2" xmlns="http://www.w3.org/2000/svg" viewBox="0 0 94.46 97.05">
  <defs>
    <style>
      .cls-1 {
        fill: #1a9058;
      }
    </style>
  </defs>
  <path class="cls-1" d="M47.58,97.05c-22.57,0-38.49-16.75-38.49-37.8,0-13.29,10.38-27.83,19.66-39.04L45.78.83c.42-.42,1.11-.83,1.8-.83s1.38.28,1.8.83l16.47,19.38c9.28,11.35,19.52,25.75,19.52,38.9-.14,20.49-15.23,37.93-37.8,37.93ZM47.44,5.81l-14.95,17.72c-8.45,10.52-18.55,24.09-18.55,35.16,0,18.14,13.29,33.78,33.64,33.78,17.72,0,33.09-12.6,33.09-33.64,0-10.94-9.83-24.64-18.27-35.16,0,0-14.95-17.86-14.95-17.86Z"/>
</svg>