<svg id="layer_1" enable-background="new 0 0 32 32" height="512" viewBox="0 0 32 32" width="512" xmlns="http://www.w3.org/2000/svg"><g><path d="m25.5499878 8.9299927c0-1.4899902-.7600098-2.8099976-1.9099731-3.5800171-.6900024-.4699707-1.5200195-.7399902-2.4100342-.7399902h-1.0700073v2.6300049c0 .5499878-.4400024 1-1 1-.5499878 0-1-.4500122-1-1v-2.6300049h-8.7699586v2.6300049c0 .5499878-.4500122 1-1 1-.5599976 0-1-.4500122-1-1v-2.6300049h-1.0700073c-1.1900024 0-2.2700195.4800415-3.0499878 1.2700195-.790039.7799682-1.2700195 1.8599853-1.2700195 3.0499878v.6600342h23.5499878z"/><path d="m6.3200073 26.539978h8.9899902c-.7600098-1.3099976-1.2000122-2.8399658-1.2000122-4.4699707 0-4.9400024 4.0100098-8.9500122 8.9400024-8.9500122.8699951 0 1.710022.1199951 2.5.3499756v-1.8799438h-23.5499877v10.6399536c0 2.3800049 1.9400024 4.3099975 4.3200073 4.3099975z"/><path d="m9.3900146 3.9899902c0-.5499878-.4500122-1-1-1-.5599976 0-1 .4500122-1 1v.6199951h2z"/><path d="m20.1599731 3.9899902c0-.5499878-.4400024-1-1-1-.5499878 0-1 .4500122-1 1v.6199951h2z"/><path d="m23.0499878 15.1199951c-3.8300171 0-6.9400024 3.1199951-6.9400024 6.9500122s3.1099854 6.9400024 6.9400024 6.9400024 6.9500122-3.1099853 6.9500122-6.9400024-3.1199951-6.9500122-6.9500122-6.9500122zm1.9700317 7.9500122h-1.9700317c-.5499878 0-1-.4500122-1-1v-2.0599976c0-.5499878.4500122-1 1-1 .5599976 0 1 .4500122 1 1v1.0599976h.9700317c.5499878 0 1 .4400024 1 1 0 .5499878-.4500122 1-1 1z"/></g></svg>