<?xml version="1.0" encoding="UTF-8"?>
<svg id="_레이어_1" data-name=" 레이어 1" xmlns="http://www.w3.org/2000/svg" viewBox="0 0 94.46 97.04">
  <defs>
    <style>
      .cls-1 {
        fill: #f0aadf;
        stroke: #f0aadf;
        stroke-miterlimit: 10;
        stroke-width: .5px;
      }
    </style>
  </defs>
  <g id="_레이어_11" data-name=" 레이어 11">
    <path class="cls-1" d="M85.45,63.64c4.04-7.85,1.59-20.37-8.66-22.29,1.53-6.86-2.08-15.66-10.68-16.58,4.09-11.71-9.8-22.06-17.32-23.58-5.4-.57.17,11.38-4.24,16.58-3.75,6.32-9.39,7.7-15.66,7-8.04-.41-12.3,9.04-10.68,16.58-9.45,1.18-13.17,14.06-9.03,22.29-13.8,5.61-11.28,32.01,5.34,32.24h65.76c7.74,0,13.82-6.26,13.82-13.45.54-7.14-.72-15.01-8.66-18.79h0ZM89.88,81.69c0,4.79-3.87,10.13-9.39,10.13H14.53c-5.34,0-9.76-4.97-9.76-10.13-2.02-16.95,12.09-12.33,9.76-18.05-2.38-2.4-2.62-6.54-2.4-9.76.14-10.51,11.27-6.67,10.68-11.42-.37-1.29-.74-3.13-.55-6.26.18-8.23,9.05-7.08,14.55-7,9.56-.62,15.82-13.3,14-23.03,20.98,8.24,5.78,20.21,12.53,22.84,8.35-1.35,11.06,7.6,8.66,13.45-1.28,4.78,10.78.35,11.05,11.24.05,3.4.4,7.46-2.58,9.95-2.68,5.68,11.66,1.28,9.58,18.05h-.18,0Z"/>
  </g>
</svg>